<svg xmlns="http://www.w3.org/2000/svg" xmlns:xlink="http://www.w3.org/1999/xlink" width="500" zoomAndPan="magnify" viewBox="0 0 375 374.999991" height="500" preserveAspectRatio="xMidYMid meet" version="1.0"><defs><clipPath id="d5c31374e5"><path d="M 8.8125 8.8125 L 365.8125 8.8125 L 365.8125 365.8125 L 8.8125 365.8125 Z M 8.8125 8.8125 " clip-rule="nonzero"/></clipPath></defs><path fill="#ff3131" d="M 187.5 375 C 83.855469 375 0 291.144531 0 187.5 C 0 83.855469 83.855469 0 187.5 0 C 291.144531 0 375 83.855469 375 187.5 C 375 291.144531 291.144531 375 187.5 375 Z M 187.5 10.417969 C 90.105469 10.417969 10.417969 90.105469 10.417969 187.5 C 10.417969 284.894531 90.105469 364.582031 187.5 364.582031 C 284.894531 364.582031 364.582031 284.894531 364.582031 187.5 C 364.582031 90.105469 284.894531 10.417969 187.5 10.417969 Z M 302.082031 244.792969 L 135.417969 244.792969 C 126.5625 244.792969 119.792969 238.019531 119.792969 229.167969 C 119.792969 220.3125 126.5625 213.542969 135.417969 213.542969 L 253.644531 213.542969 C 266.144531 213.542969 276.5625 204.6875 279.167969 192.707031 L 296.875 105.207031 C 297.394531 103.644531 296.875 102.082031 295.832031 101.042969 C 294.792969 99.480469 293.230469 98.957031 291.667969 98.957031 L 113.542969 98.957031 L 109.375 82.292969 C 108.855469 80.207031 106.769531 78.125 104.167969 78.125 L 72.917969 78.125 L 72.917969 88.542969 L 100 88.542969 L 128.644531 204.167969 C 117.707031 206.769531 109.375 217.1875 109.375 229.167969 C 109.375 243.75 120.832031 255.207031 135.417969 255.207031 L 145.832031 255.207031 C 142.707031 259.375 140.625 265.105469 140.625 270.832031 C 140.625 285.417969 152.082031 296.875 166.667969 296.875 C 181.25 296.875 192.707031 285.417969 192.707031 270.832031 C 192.707031 265.105469 190.625 259.375 187.5 255.207031 L 239.582031 255.207031 C 236.457031 259.375 234.375 265.105469 234.375 270.832031 C 234.375 285.417969 245.832031 296.875 260.417969 296.875 C 275 296.875 286.457031 285.417969 286.457031 270.832031 C 286.457031 265.105469 284.375 259.375 281.25 255.207031 L 302.082031 255.207031 Z M 285.417969 109.375 L 269.269531 190.625 C 267.707031 197.917969 260.9375 203.125 253.644531 203.125 L 139.582031 203.125 L 116.144531 109.375 Z M 182.292969 270.832031 C 182.292969 279.6875 175.519531 286.457031 166.667969 286.457031 C 157.8125 286.457031 151.042969 279.6875 151.042969 270.832031 C 151.042969 261.980469 157.8125 255.207031 166.667969 255.207031 C 175.519531 255.207031 182.292969 261.980469 182.292969 270.832031 Z M 276.042969 270.832031 C 276.042969 279.6875 269.269531 286.457031 260.417969 286.457031 C 251.5625 286.457031 244.792969 279.6875 244.792969 270.832031 C 244.792969 261.980469 251.5625 255.207031 260.417969 255.207031 C 269.269531 255.207031 276.042969 261.980469 276.042969 270.832031 Z M 276.042969 270.832031 " fill-opacity="1" fill-rule="nonzero"/><g clip-path="url(#d5c31374e5)"><path fill="#000000" d="M 187.3125 365.8125 C 88.695312 365.8125 8.8125 285.378906 8.8125 187.3125 C 8.8125 89.246094 88.695312 8.8125 187.3125 8.8125 C 285.929688 8.8125 365.8125 88.695312 365.8125 187.3125 C 365.8125 285.929688 285.378906 365.8125 187.3125 365.8125 Z M 187.3125 19.832031 C 94.757812 19.832031 19.832031 94.757812 19.832031 187.3125 C 19.832031 279.867188 94.757812 354.792969 187.3125 354.792969 C 279.867188 354.792969 354.792969 279.867188 354.792969 187.3125 C 354.792969 94.757812 279.316406 19.832031 187.3125 19.832031 Z M 187.3125 19.832031 " fill-opacity="1" fill-rule="nonzero"/></g></svg>