<svg xmlns="http://www.w3.org/2000/svg" xmlns:xlink="http://www.w3.org/1999/xlink" width="300" zoomAndPan="magnify" viewBox="0 0 224.87999 74.999997" height="100" preserveAspectRatio="xMidYMid meet" version="1.0"><defs><g/><clipPath id="7807283f73"><path d="M 0 0.511719 L 81.707031 0.511719 L 81.707031 55 L 0 55 Z M 0 0.511719 " clip-rule="nonzero"/></clipPath><clipPath id="2932a1ef80"><path d="M 10 58 L 27 58 L 27 74.722656 L 10 74.722656 Z M 10 58 " clip-rule="nonzero"/></clipPath><clipPath id="144193d19d"><path d="M 39 58 L 56 58 L 56 74.722656 L 39 74.722656 Z M 39 58 " clip-rule="nonzero"/></clipPath></defs><g fill="#272727" fill-opacity="1"><g transform="translate(81.968108, 47.619595)"><g><path d="M 13.71875 -15.53125 C 13.632812 -16.382812 13.265625 -17.046875 12.609375 -17.515625 C 11.960938 -17.992188 11.09375 -18.234375 10 -18.234375 C 8.863281 -18.234375 7.992188 -18.003906 7.390625 -17.546875 C 6.785156 -17.085938 6.484375 -16.503906 6.484375 -15.796875 C 6.472656 -15.023438 6.8125 -14.4375 7.5 -14.03125 C 8.1875 -13.632812 9 -13.320312 9.9375 -13.09375 L 11.890625 -12.625 C 13.160156 -12.34375 14.285156 -11.929688 15.265625 -11.390625 C 16.242188 -10.859375 17.015625 -10.164062 17.578125 -9.3125 C 18.148438 -8.46875 18.4375 -7.4375 18.4375 -6.21875 C 18.425781 -4.226562 17.675781 -2.640625 16.1875 -1.453125 C 14.707031 -0.273438 12.632812 0.3125 9.96875 0.3125 C 7.320312 0.3125 5.210938 -0.289062 3.640625 -1.5 C 2.066406 -2.707031 1.25 -4.488281 1.1875 -6.84375 L 5.65625 -6.84375 C 5.726562 -5.75 6.15625 -4.925781 6.9375 -4.375 C 7.726562 -3.820312 8.722656 -3.546875 9.921875 -3.546875 C 11.085938 -3.546875 12.019531 -3.796875 12.71875 -4.296875 C 13.414062 -4.796875 13.769531 -5.441406 13.78125 -6.234375 C 13.769531 -6.972656 13.445312 -7.539062 12.8125 -7.9375 C 12.175781 -8.332031 11.265625 -8.671875 10.078125 -8.953125 L 7.703125 -9.5625 C 5.867188 -10 4.414062 -10.695312 3.34375 -11.65625 C 2.28125 -12.613281 1.753906 -13.894531 1.765625 -15.5 C 1.753906 -16.8125 2.101562 -17.960938 2.8125 -18.953125 C 3.53125 -19.941406 4.515625 -20.710938 5.765625 -21.265625 C 7.015625 -21.816406 8.4375 -22.09375 10.03125 -22.09375 C 11.644531 -22.09375 13.054688 -21.816406 14.265625 -21.265625 C 15.472656 -20.710938 16.414062 -19.941406 17.09375 -18.953125 C 17.769531 -17.960938 18.117188 -16.820312 18.140625 -15.53125 Z M 13.71875 -15.53125 "/></g></g></g><g fill="#272727" fill-opacity="1"><g transform="translate(103.004115, 47.619595)"><g><path d="M 6.5 -21.796875 L 6.5 0 L 1.890625 0 L 1.890625 -21.796875 Z M 6.5 -21.796875 "/></g></g></g><g fill="#272727" fill-opacity="1"><g transform="translate(112.82179, 47.619595)"><g><path d="M 16.34375 -14.75 C 16.050781 -15.769531 15.515625 -16.566406 14.734375 -17.140625 C 13.953125 -17.722656 12.96875 -18.015625 11.78125 -18.015625 C 10.113281 -18.015625 8.765625 -17.398438 7.734375 -16.171875 C 6.703125 -14.941406 6.1875 -13.191406 6.1875 -10.921875 C 6.1875 -8.640625 6.691406 -6.878906 7.703125 -5.640625 C 8.722656 -4.398438 10.097656 -3.78125 11.828125 -3.78125 C 13.359375 -3.78125 14.5625 -4.175781 15.4375 -4.96875 C 16.3125 -5.769531 16.765625 -6.84375 16.796875 -8.1875 L 12.109375 -8.1875 L 12.109375 -11.65625 L 21.234375 -11.65625 L 21.234375 -8.921875 C 21.234375 -7.015625 20.828125 -5.367188 20.015625 -3.984375 C 19.210938 -2.609375 18.101562 -1.550781 16.6875 -0.8125 C 15.269531 -0.0703125 13.640625 0.296875 11.796875 0.296875 C 9.753906 0.296875 7.957031 -0.15625 6.40625 -1.0625 C 4.863281 -1.96875 3.660156 -3.253906 2.796875 -4.921875 C 1.941406 -6.585938 1.515625 -8.570312 1.515625 -10.875 C 1.515625 -13.226562 1.960938 -15.242188 2.859375 -16.921875 C 3.765625 -18.597656 4.984375 -19.878906 6.515625 -20.765625 C 8.054688 -21.648438 9.785156 -22.09375 11.703125 -22.09375 C 13.347656 -22.09375 14.835938 -21.78125 16.171875 -21.15625 C 17.503906 -20.53125 18.597656 -19.664062 19.453125 -18.5625 C 20.304688 -17.457031 20.832031 -16.1875 21.03125 -14.75 Z M 16.34375 -14.75 "/></g></g></g><g fill="#272727" fill-opacity="1"><g transform="translate(137.029584, 47.619595)"><g><path d="M 20.125 -21.796875 L 20.125 0 L 16.140625 0 L 6.65625 -13.71875 L 6.5 -13.71875 L 6.5 0 L 1.890625 0 L 1.890625 -21.796875 L 5.9375 -21.796875 L 15.34375 -8.09375 L 15.53125 -8.09375 L 15.53125 -21.796875 Z M 20.125 -21.796875 "/></g></g></g><g fill="#272727" fill-opacity="1"><g transform="translate(160.471047, 47.619595)"><g/></g></g><g fill="#ff0000" fill-opacity="1"><g transform="translate(168.828, 47.619595)"><g><path d="M 15.390625 -21.796875 L 19.96875 -21.796875 L 19.96875 -7.390625 C 19.96875 -5.742188 19.578125 -4.347656 18.796875 -3.203125 C 18.023438 -2.054688 16.957031 -1.179688 15.59375 -0.578125 C 14.238281 0.015625 12.679688 0.3125 10.921875 0.3125 C 9.171875 0.3125 7.613281 0.015625 6.25 -0.578125 C 4.882812 -1.179688 3.816406 -2.054688 3.046875 -3.203125 C 2.273438 -4.347656 1.890625 -5.742188 1.890625 -7.390625 L 1.890625 -21.796875 L 6.5 -21.796875 L 6.5 -7.546875 C 6.5 -6.378906 6.921875 -5.460938 7.765625 -4.796875 C 8.609375 -4.128906 9.660156 -3.796875 10.921875 -3.796875 C 12.210938 -3.796875 13.28125 -4.128906 14.125 -4.796875 C 14.96875 -5.460938 15.390625 -6.378906 15.390625 -7.546875 Z M 15.390625 -21.796875 "/></g></g></g><g fill="#ff0000" fill-opacity="1"><g transform="translate(192.099162, 47.619595)"><g><path d="M 1.890625 0 L 1.890625 -21.796875 L 10.5 -21.796875 C 12.144531 -21.796875 13.550781 -21.476562 14.71875 -20.84375 C 15.882812 -20.21875 16.773438 -19.347656 17.390625 -18.234375 C 18.003906 -17.128906 18.3125 -15.851562 18.3125 -14.40625 C 18.3125 -12.957031 18 -11.679688 17.375 -10.578125 C 16.75 -9.472656 15.84375 -8.609375 14.65625 -7.984375 C 13.476562 -7.367188 12.050781 -7.0625 10.375 -7.0625 L 6.5 -7.0625 L 6.5 0 Z M 6.5 -10.765625 L 9.625 -10.765625 C 10.945312 -10.765625 11.929688 -11.101562 12.578125 -11.78125 C 13.234375 -12.457031 13.5625 -13.332031 13.5625 -14.40625 C 13.5625 -15.488281 13.234375 -16.363281 12.578125 -17.03125 C 11.929688 -17.695312 10.941406 -18.03125 9.609375 -18.03125 L 6.5 -18.03125 Z M 6.5 -10.765625 "/></g></g></g><g clip-path="url(#7807283f73)"><path fill="#ff0000" d="M 6.464844 48.09375 C 7.21875 51.628906 10.351562 54.179688 13.941406 54.179688 L 51.800781 54.179688 C 55.390625 54.179688 58.523438 51.628906 59.277344 48.09375 L 68.160156 6.125 C 68.378906 5.066406 69.3125 4.308594 70.382812 4.308594 L 79.882812 4.308594 C 80.8125 4.308594 81.566406 3.550781 81.566406 2.613281 C 81.566406 1.675781 80.8125 0.914062 79.882812 0.914062 L 70.382812 0.914062 C 67.726562 0.914062 65.40625 2.8125 64.847656 5.425781 L 59.335938 31.511719 L 21.257812 31.511719 L 27.445312 25.285156 C 28.101562 24.625 28.101562 23.546875 27.445312 22.886719 C 26.792969 22.230469 25.722656 22.230469 25.066406 22.886719 L 16.003906 32.007812 C 15.351562 32.667969 15.351562 33.746094 16.003906 34.402344 L 25.046875 43.503906 C 25.382812 43.84375 25.800781 44.003906 26.238281 44.003906 C 26.671875 44.003906 27.109375 43.84375 27.425781 43.503906 C 28.082031 42.847656 28.082031 41.769531 27.425781 41.109375 L 21.238281 34.882812 L 58.582031 34.882812 L 55.945312 47.394531 C 55.527344 49.371094 53.785156 50.789062 51.78125 50.789062 L 13.921875 50.789062 C 11.917969 50.789062 10.171875 49.351562 9.757812 47.394531 L 3.589844 18.238281 C 3.449219 17.558594 3.609375 16.863281 4.046875 16.324219 C 4.480469 15.785156 5.136719 15.464844 5.8125 15.464844 L 48.191406 15.464844 L 42.003906 21.691406 C 41.347656 22.351562 41.347656 23.425781 42.003906 24.085938 C 42.339844 24.425781 42.757812 24.585938 43.191406 24.585938 C 43.628906 24.585938 44.066406 24.425781 44.382812 24.085938 L 53.445312 14.964844 C 53.761719 14.644531 53.941406 14.207031 53.941406 13.769531 C 53.941406 13.328125 53.761719 12.890625 53.445312 12.570312 L 44.382812 3.449219 C 43.730469 2.792969 42.65625 2.792969 42.003906 3.449219 C 41.347656 4.109375 41.347656 5.1875 42.003906 5.84375 L 48.191406 12.070312 L 5.832031 12.070312 C 4.125 12.070312 2.519531 12.851562 1.429688 14.1875 C 0.335938 15.523438 -0.0585938 17.261719 0.296875 18.957031 Z M 6.464844 48.09375 " fill-opacity="1" fill-rule="nonzero"/></g><g clip-path="url(#2932a1ef80)"><path fill="#272727" d="M 10.09375 66.074219 C 10.09375 70.507812 13.683594 74.117188 18.085938 74.117188 C 22.488281 74.117188 26.078125 70.507812 26.078125 66.074219 C 26.078125 61.644531 22.488281 58.035156 18.085938 58.035156 C 13.683594 58.035156 10.09375 61.644531 10.09375 66.074219 Z M 22.707031 66.074219 C 22.707031 68.628906 20.644531 70.726562 18.085938 70.726562 C 15.527344 70.726562 13.464844 68.652344 13.464844 66.074219 C 13.464844 63.5 15.527344 61.425781 18.085938 61.425781 C 20.644531 61.425781 22.707031 63.523438 22.707031 66.074219 Z M 22.707031 66.074219 " fill-opacity="1" fill-rule="nonzero"/></g><g clip-path="url(#144193d19d)"><path fill="#272727" d="M 39.625 66.074219 C 39.625 70.507812 43.214844 74.117188 47.617188 74.117188 C 52.019531 74.117188 55.609375 70.507812 55.609375 66.074219 C 55.609375 61.644531 52.019531 58.035156 47.617188 58.035156 C 43.214844 58.035156 39.625 61.644531 39.625 66.074219 Z M 52.238281 66.074219 C 52.238281 68.628906 50.175781 70.726562 47.617188 70.726562 C 45.058594 70.726562 42.996094 68.652344 42.996094 66.074219 C 42.996094 63.5 45.058594 61.425781 47.617188 61.425781 C 50.175781 61.425781 52.238281 63.523438 52.238281 66.074219 Z M 52.238281 66.074219 " fill-opacity="1" fill-rule="nonzero"/></g></svg>