<?xml version="1.0" standalone="no"?>
<!DOCTYPE svg PUBLIC "-//W3C//DTD SVG 20010904//EN"
 "http://www.w3.org/TR/2001/REC-SVG-20010904/DTD/svg10.dtd">
<svg version="1.0" xmlns="http://www.w3.org/2000/svg"
 width="450.000000pt" height="269.000000pt" viewBox="0 0 450.000000 269.000000"
 preserveAspectRatio="xMidYMid meet">

<g transform="translate(0.000000,269.000000) scale(0.100000,-0.100000)"
fill="#000000" stroke="none">
<path d="M2988 2278 c-21 -12 -38 -28 -38 -35 0 -8 73 -61 163 -119 89 -58
202 -132 250 -163 l88 -58 -112 -84 c-62 -46 -156 -116 -209 -156 l-97 -72
-98 34 c-97 34 -135 37 -135 10 0 -7 41 -39 90 -70 50 -31 94 -64 99 -74 5 -9
16 -52 26 -96 23 -112 25 -115 40 -115 26 0 35 38 34 135 -1 54 3 100 8 104
152 102 425 272 430 268 3 -4 32 -125 64 -269 32 -145 61 -273 64 -285 7 -30
20 -29 62 3 33 25 33 26 33 105 0 75 2 82 27 103 24 20 25 26 14 40 -7 9 -22
16 -32 16 -16 0 -19 8 -19 52 0 45 4 55 27 74 29 23 27 52 -6 61 -15 4 -19 18
-25 80 -3 42 -6 95 -6 119 l0 42 90 57 c98 62 175 139 185 185 9 41 0 50 -45
50 -61 0 -131 -32 -226 -101 -47 -35 -91 -63 -98 -61 -6 2 -56 21 -112 43 -93
37 -101 42 -96 65 6 31 -20 41 -53 20 -24 -16 -28 -15 -76 5 -33 15 -48 27
-45 35 14 38 -24 57 -63 32 -15 -9 -31 -7 -82 12 -35 12 -68 24 -74 26 -5 2
-27 -6 -47 -18z"/>
<path d="M956 1418 c-160 -160 -235 -264 -267 -371 -109 -354 395 -408 1121
-119 379 151 1116 499 1108 524 -9 26 -40 19 -117 -26 -98 -56 -347 -184 -421
-216 -30 -13 -89 -38 -130 -55 -41 -18 -93 -40 -115 -48 -176 -69 -227 -87
-240 -87 -8 0 -38 -9 -67 -20 -93 -36 -458 -129 -593 -151 -243 -39 -403 -24
-460 43 -25 30 -27 38 -23 98 4 48 14 83 40 135 42 82 127 204 207 294 110
126 122 141 111 141 -6 0 -75 -64 -154 -142z"/>
<path d="M210 490 c0 -19 7 -20 135 -20 128 0 135 1 135 20 0 19 -7 20 -135
20 -128 0 -135 -1 -135 -20z"/>
<path d="M510 492 c0 -19 8 -20 123 -23 97 -3 129 -8 150 -22 26 -17 27 -17
27 1 0 10 -9 27 -21 38 -18 16 -40 20 -150 23 -123 3 -129 2 -129 -17z"/>
<path d="M934 453 c-21 -32 -52 -82 -71 -110 -24 -38 -29 -53 -19 -53 8 0 40
41 72 90 l57 90 42 0 42 0 57 -90 c32 -49 64 -90 72 -90 13 0 -10 40 -112 196
-13 19 -25 24 -60 24 -42 0 -45 -2 -80 -57z"/>
<path d="M1210 502 c0 -17 26 -32 55 -32 30 0 34 -5 66 -75 19 -41 38 -73 42
-72 5 1 23 35 40 75 31 69 33 72 67 72 24 0 39 6 48 20 12 19 10 20 -36 20
l-49 0 -35 -77 -35 -78 -36 78 -36 77 -46 0 c-25 0 -45 -4 -45 -8z"/>
<path d="M1570 490 c0 -19 7 -20 125 -20 118 0 125 1 125 20 0 19 -7 20 -125
20 -118 0 -125 -1 -125 -20z"/>
<path d="M1870 490 c0 -17 7 -20 45 -20 38 0 45 3 45 20 0 17 -7 20 -45 20
-38 0 -45 -3 -45 -20z"/>
<path d="M2160 490 c0 -19 7 -20 108 -20 111 0 169 -10 184 -32 6 -8 8 -2 6
17 -5 45 -35 55 -175 55 -116 0 -123 -1 -123 -20z"/>
<path d="M2567 406 c-37 -57 -67 -106 -67 -110 0 -24 28 7 78 84 57 90 57 90
99 90 41 0 41 0 99 -90 32 -49 64 -90 72 -90 15 0 19 -6 -64 123 l-63 97 -44
0 -44 0 -66 -104z"/>
<path d="M2880 490 c0 -19 7 -20 124 -20 97 0 125 3 129 14 3 8 3 17 0 20 -4
3 -62 6 -130 6 -116 0 -123 -1 -123 -20z"/>
<path d="M3254 453 c-21 -32 -52 -82 -71 -110 -24 -38 -29 -53 -19 -53 8 0 40
41 72 90 l57 90 42 0 42 0 57 -90 c32 -49 64 -90 72 -90 13 0 -10 40 -112 196
-13 19 -25 24 -60 24 -42 0 -45 -2 -80 -57z"/>
<path d="M3600 408 c-76 -119 -76 -118 -58 -118 7 0 38 41 68 90 l55 89 43 1
43 0 57 -90 c31 -49 63 -90 70 -90 18 0 18 -2 -58 118 l-65 102 -45 0 -45 0
-65 -102z"/>
<path d="M3920 492 c0 -19 8 -20 123 -23 97 -3 129 -8 150 -22 26 -17 27 -17
27 1 0 10 -9 27 -21 38 -18 16 -40 20 -150 23 -123 3 -129 2 -129 -17z"/>
<path d="M1660 400 c0 -18 7 -20 70 -20 63 0 70 2 70 20 0 18 -7 20 -70 20
-63 0 -70 -2 -70 -20z"/>
<path d="M2250 400 c0 -18 7 -20 54 -20 55 0 81 15 55 31 -8 5 -35 9 -61 9
-41 0 -48 -3 -48 -20z"/>
<path d="M2928 383 c-27 -21 -48 -45 -48 -55 0 -10 2 -18 5 -18 7 0 135 101
135 106 0 2 -10 4 -22 4 -13 0 -44 -17 -70 -37z"/>
<path d="M600 390 c0 -19 5 -21 57 -18 46 2 59 7 61 21 3 15 -5 17 -57 17 -55
0 -61 -2 -61 -20z"/>
<path d="M4010 390 c0 -19 5 -21 57 -18 46 2 59 7 61 21 3 15 -5 17 -57 17
-55 0 -61 -2 -61 -20z"/>
<path d="M986 364 c-9 -24 -9 -24 30 -24 29 0 35 3 30 16 -3 9 -6 18 -6 20 0
12 -49 2 -54 -12z"/>
<path d="M2441 371 c-11 -7 -9 -11 9 -21 25 -13 35 -8 27 15 -7 17 -16 19 -36
6z"/>
<path d="M2652 368 c-21 -21 -13 -28 28 -28 38 0 39 1 28 20 -14 23 -38 26
-56 8z"/>
<path d="M3306 364 c-9 -24 -9 -24 30 -24 29 0 35 3 30 16 -3 9 -6 18 -6 20 0
12 -49 2 -54 -12z"/>
<path d="M3680 360 c-10 -18 -8 -20 30 -20 38 0 40 2 30 20 -6 11 -19 20 -30
20 -11 0 -24 -9 -30 -20z"/>
<path d="M783 338 c-7 -9 -4 -18 9 -30 17 -17 18 -17 18 0 0 9 -4 23 -9 30 -6
11 -10 11 -18 0z"/>
<path d="M1960 324 c0 -23 2 -24 85 -24 78 0 85 2 85 20 0 17 -7 20 -52 21
-29 0 -68 2 -85 3 -29 3 -33 1 -33 -20z"/>
<path d="M4193 338 c-7 -9 -4 -18 9 -30 17 -17 18 -17 18 0 0 9 -4 23 -9 30
-6 11 -10 11 -18 0z"/>
<path d="M1660 320 c0 -18 7 -20 85 -20 78 0 85 2 85 20 0 18 -7 20 -85 20
-78 0 -85 -2 -85 -20z"/>
<path d="M2250 320 c0 -19 5 -21 57 -18 46 2 59 7 61 21 3 15 -5 17 -57 17
-55 0 -61 -2 -61 -20z"/>
<path d="M3005 320 l-19 -21 74 3 c61 2 74 6 76 21 2 14 -6 17 -55 17 -46 0
-62 -4 -76 -20z"/>
</g>
</svg>
