<svg xmlns="http://www.w3.org/2000/svg" xmlns:xlink="http://www.w3.org/1999/xlink" width="300" zoomAndPan="magnify" viewBox="0 0 224.87999 74.999997" height="100" preserveAspectRatio="xMidYMid meet" version="1.0"><defs><g/><clipPath id="bfec12ac51"><path d="M 0 18.003906 L 43.476562 18.003906 L 43.476562 47 L 0 47 Z M 0 18.003906 " clip-rule="nonzero"/></clipPath><clipPath id="8d115663d9"><path d="M 5 48 L 14 48 L 14 56.980469 L 5 56.980469 Z M 5 48 " clip-rule="nonzero"/></clipPath><clipPath id="75949818e2"><path d="M 21 48 L 30 48 L 30 56.980469 L 21 56.980469 Z M 21 48 " clip-rule="nonzero"/></clipPath></defs><g fill="#272727" fill-opacity="1"><g transform="translate(43.208862, 47.014283)"><g><path d="M 1.0625 -18 L 1.0625 -21.8125 L 18.96875 -21.8125 L 18.96875 -18 L 12.296875 -18 L 12.296875 0 L 7.734375 0 L 7.734375 -18 Z M 1.0625 -18 "/></g></g></g><g fill="#272727" fill-opacity="1"><g transform="translate(64.651447, 47.014283)"><g><path d="M 1.890625 0 L 1.890625 -21.8125 L 10.5 -21.8125 C 12.976562 -21.8125 14.898438 -21.164062 16.265625 -19.875 C 17.628906 -18.582031 18.3125 -16.851562 18.3125 -14.6875 C 18.3125 -13.195312 17.976562 -11.921875 17.3125 -10.859375 C 16.65625 -9.804688 15.703125 -9.007812 14.453125 -8.46875 L 19.09375 0 L 14 0 L 9.875 -7.734375 L 6.5 -7.734375 L 6.5 0 Z M 6.5 -11.4375 L 9.640625 -11.4375 C 12.253906 -11.4375 13.5625 -12.519531 13.5625 -14.6875 C 13.5625 -16.914062 12.242188 -18.03125 9.609375 -18.03125 L 6.5 -18.03125 Z M 6.5 -11.4375 "/></g></g></g><g fill="#272727" fill-opacity="1"><g transform="translate(85.732119, 47.014283)"><g><path d="M 6.5 -21.8125 L 6.5 0 L 1.890625 0 L 1.890625 -21.8125 Z M 6.5 -21.8125 "/></g></g></g><g fill="#272727" fill-opacity="1"><g transform="translate(95.550697, 47.014283)"><g><path d="M 1.890625 0 L 1.890625 -21.8125 L 10.5 -21.8125 C 12.15625 -21.8125 13.5625 -21.492188 14.71875 -20.859375 C 15.882812 -20.234375 16.773438 -19.363281 17.390625 -18.25 C 18.003906 -17.144531 18.3125 -15.867188 18.3125 -14.421875 C 18.3125 -12.972656 18 -11.695312 17.375 -10.59375 C 16.75 -9.488281 15.84375 -8.625 14.65625 -8 C 13.476562 -7.375 12.050781 -7.0625 10.375 -7.0625 L 6.5 -7.0625 L 6.5 0 Z M 6.5 -10.765625 L 9.640625 -10.765625 C 10.953125 -10.765625 11.929688 -11.101562 12.578125 -11.78125 C 13.234375 -12.457031 13.5625 -13.335938 13.5625 -14.421875 C 13.5625 -15.503906 13.234375 -16.375 12.578125 -17.03125 C 11.929688 -17.695312 10.941406 -18.03125 9.609375 -18.03125 L 6.5 -18.03125 Z M 6.5 -10.765625 "/></g></g></g><g fill="#ff0000" fill-opacity="1"><g transform="translate(116.363462, 47.014283)"><g><path d="M 13.71875 -15.53125 C 13.632812 -16.394531 13.269531 -17.0625 12.625 -17.53125 C 11.976562 -18.007812 11.101562 -18.25 10 -18.25 C 8.875 -18.25 8.007812 -18.015625 7.40625 -17.546875 C 6.800781 -17.085938 6.5 -16.507812 6.5 -15.8125 C 6.476562 -15.03125 6.8125 -14.4375 7.5 -14.03125 C 8.1875 -13.632812 9 -13.328125 9.9375 -13.109375 L 11.90625 -12.640625 C 13.164062 -12.359375 14.285156 -11.945312 15.265625 -11.40625 C 16.253906 -10.863281 17.03125 -10.164062 17.59375 -9.3125 C 18.15625 -8.46875 18.4375 -7.441406 18.4375 -6.234375 C 18.4375 -4.234375 17.691406 -2.640625 16.203125 -1.453125 C 14.710938 -0.273438 12.640625 0.3125 9.984375 0.3125 C 7.328125 0.3125 5.210938 -0.289062 3.640625 -1.5 C 2.066406 -2.707031 1.25 -4.488281 1.1875 -6.84375 L 5.65625 -6.84375 C 5.726562 -5.75 6.15625 -4.925781 6.9375 -4.375 C 7.726562 -3.832031 8.722656 -3.5625 9.921875 -3.5625 C 11.097656 -3.5625 12.035156 -3.804688 12.734375 -4.296875 C 13.429688 -4.796875 13.78125 -5.441406 13.78125 -6.234375 C 13.78125 -6.972656 13.457031 -7.539062 12.8125 -7.9375 C 12.175781 -8.34375 11.265625 -8.6875 10.078125 -8.96875 L 7.703125 -9.5625 C 5.867188 -10 4.414062 -10.695312 3.34375 -11.65625 C 2.28125 -12.613281 1.753906 -13.894531 1.765625 -15.5 C 1.753906 -16.820312 2.101562 -17.976562 2.8125 -18.96875 C 3.53125 -19.957031 4.515625 -20.726562 5.765625 -21.28125 C 7.015625 -21.832031 8.4375 -22.109375 10.03125 -22.109375 C 11.644531 -22.109375 13.054688 -21.828125 14.265625 -21.265625 C 15.484375 -20.710938 16.425781 -19.941406 17.09375 -18.953125 C 17.769531 -17.972656 18.117188 -16.832031 18.140625 -15.53125 Z M 13.71875 -15.53125 "/></g></g></g><g fill="#ff0000" fill-opacity="1"><g transform="translate(137.401545, 47.014283)"><g><path d="M 1.0625 -18 L 1.0625 -21.8125 L 18.96875 -21.8125 L 18.96875 -18 L 12.296875 -18 L 12.296875 0 L 7.734375 0 L 7.734375 -18 Z M 1.0625 -18 "/></g></g></g><g fill="#ff0000" fill-opacity="1"><g transform="translate(158.84413, 47.014283)"><g><path d="M 21.9375 -10.90625 C 21.9375 -8.53125 21.484375 -6.503906 20.578125 -4.828125 C 19.679688 -3.160156 18.460938 -1.890625 16.921875 -1.015625 C 15.390625 -0.140625 13.65625 0.296875 11.71875 0.296875 C 9.78125 0.296875 8.039062 -0.140625 6.5 -1.015625 C 4.957031 -1.898438 3.738281 -3.175781 2.84375 -4.84375 C 1.957031 -6.519531 1.515625 -8.539062 1.515625 -10.90625 C 1.515625 -13.28125 1.957031 -15.300781 2.84375 -16.96875 C 3.738281 -18.632812 4.957031 -19.90625 6.5 -20.78125 C 8.039062 -21.664062 9.78125 -22.109375 11.71875 -22.109375 C 13.65625 -22.109375 15.390625 -21.664062 16.921875 -20.78125 C 18.460938 -19.90625 19.679688 -18.632812 20.578125 -16.96875 C 21.484375 -15.300781 21.9375 -13.28125 21.9375 -10.90625 Z M 17.265625 -10.90625 C 17.265625 -13.21875 16.757812 -14.984375 15.75 -16.203125 C 14.738281 -17.421875 13.394531 -18.03125 11.71875 -18.03125 C 10.039062 -18.03125 8.695312 -17.421875 7.6875 -16.203125 C 6.6875 -14.984375 6.1875 -13.21875 6.1875 -10.90625 C 6.1875 -8.59375 6.6875 -6.828125 7.6875 -5.609375 C 8.695312 -4.390625 10.039062 -3.78125 11.71875 -3.78125 C 13.394531 -3.78125 14.738281 -4.390625 15.75 -5.609375 C 16.757812 -6.828125 17.265625 -8.59375 17.265625 -10.90625 Z M 17.265625 -10.90625 "/></g></g></g><g fill="#ff0000" fill-opacity="1"><g transform="translate(183.693019, 47.014283)"><g><path d="M 1.890625 0 L 1.890625 -21.8125 L 10.5 -21.8125 C 12.976562 -21.8125 14.898438 -21.164062 16.265625 -19.875 C 17.628906 -18.582031 18.3125 -16.851562 18.3125 -14.6875 C 18.3125 -13.195312 17.976562 -11.921875 17.3125 -10.859375 C 16.65625 -9.804688 15.703125 -9.007812 14.453125 -8.46875 L 19.09375 0 L 14 0 L 9.875 -7.734375 L 6.5 -7.734375 L 6.5 0 Z M 6.5 -11.4375 L 9.640625 -11.4375 C 12.253906 -11.4375 13.5625 -12.519531 13.5625 -14.6875 C 13.5625 -16.914062 12.242188 -18.03125 9.609375 -18.03125 L 6.5 -18.03125 Z M 6.5 -11.4375 "/></g></g></g><g fill="#ff0000" fill-opacity="1"><g transform="translate(204.77369, 47.014283)"><g><path d="M 1.890625 0 L 1.890625 -21.8125 L 16.59375 -21.8125 L 16.59375 -18 L 6.5 -18 L 6.5 -12.8125 L 15.828125 -12.8125 L 15.828125 -9.015625 L 6.5 -9.015625 L 6.5 -3.796875 L 16.625 -3.796875 L 16.625 0 Z M 1.890625 0 "/></g></g></g><g clip-path="url(#bfec12ac51)"><path fill="#ff0000" d="M 3.441406 42.996094 C 3.839844 44.851562 5.507812 46.195312 7.417969 46.195312 L 27.5625 46.195312 C 29.472656 46.195312 31.140625 44.851562 31.542969 42.996094 L 36.269531 20.949219 C 36.386719 20.390625 36.882812 19.992188 37.453125 19.992188 L 42.507812 19.992188 C 43 19.992188 43.402344 19.59375 43.402344 19.101562 C 43.402344 18.609375 43 18.210938 42.507812 18.210938 L 37.453125 18.210938 C 36.039062 18.210938 34.800781 19.207031 34.507812 20.582031 L 31.574219 34.285156 L 11.3125 34.285156 L 14.605469 31.011719 C 14.953125 30.667969 14.953125 30.101562 14.605469 29.753906 C 14.257812 29.410156 13.6875 29.410156 13.339844 29.753906 L 8.515625 34.546875 C 8.167969 34.890625 8.167969 35.457031 8.515625 35.804688 L 13.328125 40.585938 C 13.507812 40.761719 13.730469 40.847656 13.960938 40.847656 C 14.191406 40.847656 14.425781 40.761719 14.59375 40.585938 C 14.941406 40.238281 14.941406 39.671875 14.59375 39.328125 L 11.300781 36.054688 L 31.171875 36.054688 L 29.769531 42.628906 C 29.546875 43.667969 28.617188 44.410156 27.554688 44.410156 L 7.40625 44.410156 C 6.34375 44.410156 5.414062 43.65625 5.191406 42.628906 L 1.910156 27.3125 C 1.835938 26.957031 1.921875 26.589844 2.152344 26.304688 C 2.386719 26.023438 2.734375 25.855469 3.09375 25.855469 L 25.644531 25.855469 L 22.351562 29.125 C 22.003906 29.472656 22.003906 30.039062 22.351562 30.382812 C 22.53125 30.5625 22.75 30.644531 22.984375 30.644531 C 23.214844 30.644531 23.449219 30.5625 23.617188 30.382812 L 28.4375 25.59375 C 28.609375 25.425781 28.703125 25.195312 28.703125 24.964844 C 28.703125 24.734375 28.609375 24.5 28.4375 24.335938 L 23.617188 19.542969 C 23.269531 19.195312 22.699219 19.195312 22.351562 19.542969 C 22.003906 19.890625 22.003906 20.453125 22.351562 20.800781 L 25.644531 24.070312 L 3.101562 24.070312 C 2.195312 24.070312 1.339844 24.480469 0.761719 25.183594 C 0.179688 25.886719 -0.03125 26.796875 0.160156 27.6875 Z M 3.441406 42.996094 " fill-opacity="1" fill-rule="nonzero"/></g><g clip-path="url(#8d115663d9)"><path fill="#272727" d="M 5.371094 52.441406 C 5.371094 54.769531 7.28125 56.667969 9.625 56.667969 C 11.964844 56.667969 13.875 54.769531 13.875 52.441406 C 13.875 50.113281 11.964844 48.21875 9.625 48.21875 C 7.28125 48.21875 5.371094 50.113281 5.371094 52.441406 Z M 12.082031 52.441406 C 12.082031 53.785156 10.984375 54.882812 9.625 54.882812 C 8.261719 54.882812 7.164062 53.792969 7.164062 52.441406 C 7.164062 51.089844 8.261719 50 9.625 50 C 10.984375 50 12.082031 51.101562 12.082031 52.441406 Z M 12.082031 52.441406 " fill-opacity="1" fill-rule="nonzero"/></g><g clip-path="url(#75949818e2)"><path fill="#272727" d="M 21.085938 52.441406 C 21.085938 54.769531 22.996094 56.667969 25.335938 56.667969 C 27.679688 56.667969 29.589844 54.769531 29.589844 52.441406 C 29.589844 50.113281 27.679688 48.21875 25.335938 48.21875 C 22.996094 48.21875 21.085938 50.113281 21.085938 52.441406 Z M 27.796875 52.441406 C 27.796875 53.785156 26.699219 54.882812 25.335938 54.882812 C 23.976562 54.882812 22.878906 53.792969 22.878906 52.441406 C 22.878906 51.089844 23.976562 50 25.335938 50 C 26.699219 50 27.796875 51.101562 27.796875 52.441406 Z M 27.796875 52.441406 " fill-opacity="1" fill-rule="nonzero"/></g></svg>