<svg xmlns="http://www.w3.org/2000/svg" xmlns:xlink="http://www.w3.org/1999/xlink" width="300" zoomAndPan="magnify" viewBox="0 0 224.87999 74.999997" height="100" preserveAspectRatio="xMidYMid meet" version="1.0"><defs><g/><clipPath id="ef967b214b"><path d="M 0 0.511719 L 81.707031 0.511719 L 81.707031 55 L 0 55 Z M 0 0.511719 " clip-rule="nonzero"/></clipPath><clipPath id="c379b7f3ef"><path d="M 10 58 L 27 58 L 27 74.722656 L 10 74.722656 Z M 10 58 " clip-rule="nonzero"/></clipPath><clipPath id="c081545dba"><path d="M 39 58 L 56 58 L 56 74.722656 L 39 74.722656 Z M 39 58 " clip-rule="nonzero"/></clipPath></defs><g fill="#272727" fill-opacity="1"><g transform="translate(81.968108, 47.619595)"><g><path d="M 1.890625 0 L 1.890625 -21.796875 L 10.5 -21.796875 C 12.144531 -21.796875 13.550781 -21.476562 14.71875 -20.84375 C 15.882812 -20.21875 16.773438 -19.347656 17.390625 -18.234375 C 18.003906 -17.128906 18.3125 -15.851562 18.3125 -14.40625 C 18.3125 -12.957031 18 -11.679688 17.375 -10.578125 C 16.75 -9.472656 15.84375 -8.609375 14.65625 -7.984375 C 13.476562 -7.367188 12.050781 -7.0625 10.375 -7.0625 L 6.5 -7.0625 L 6.5 0 Z M 6.5 -10.765625 L 9.625 -10.765625 C 10.945312 -10.765625 11.929688 -11.101562 12.578125 -11.78125 C 13.234375 -12.457031 13.5625 -13.332031 13.5625 -14.40625 C 13.5625 -15.488281 13.234375 -16.363281 12.578125 -17.03125 C 11.929688 -17.695312 10.941406 -18.03125 9.609375 -18.03125 L 6.5 -18.03125 Z M 6.5 -10.765625 "/></g></g></g><g fill="#272727" fill-opacity="1"><g transform="translate(102.791254, 47.619595)"><g><path d="M 1.890625 0 L 1.890625 -21.796875 L 10.5 -21.796875 C 12.96875 -21.796875 14.882812 -21.148438 16.25 -19.859375 C 17.625 -18.566406 18.3125 -16.835938 18.3125 -14.671875 C 18.3125 -13.179688 17.976562 -11.90625 17.3125 -10.84375 C 16.644531 -9.789062 15.691406 -9 14.453125 -8.46875 L 19.078125 0 L 14 0 L 9.859375 -7.71875 L 6.5 -7.71875 L 6.5 0 Z M 6.5 -11.4375 L 9.625 -11.4375 C 12.25 -11.4375 13.5625 -12.515625 13.5625 -14.671875 C 13.5625 -16.910156 12.242188 -18.03125 9.609375 -18.03125 L 6.5 -18.03125 Z M 6.5 -11.4375 "/></g></g></g><g fill="#272727" fill-opacity="1"><g transform="translate(123.869845, 47.619595)"><g><path d="M 21.921875 -10.890625 C 21.921875 -8.515625 21.472656 -6.492188 20.578125 -4.828125 C 19.679688 -3.160156 18.460938 -1.890625 16.921875 -1.015625 C 15.378906 -0.140625 13.644531 0.296875 11.71875 0.296875 C 9.78125 0.296875 8.039062 -0.140625 6.5 -1.015625 C 4.957031 -1.898438 3.738281 -3.175781 2.84375 -4.84375 C 1.957031 -6.519531 1.515625 -8.535156 1.515625 -10.890625 C 1.515625 -13.273438 1.957031 -15.300781 2.84375 -16.96875 C 3.738281 -18.632812 4.957031 -19.90625 6.5 -20.78125 C 8.039062 -21.65625 9.78125 -22.09375 11.71875 -22.09375 C 13.644531 -22.09375 15.378906 -21.65625 16.921875 -20.78125 C 18.460938 -19.90625 19.679688 -18.632812 20.578125 -16.96875 C 21.472656 -15.300781 21.921875 -13.273438 21.921875 -10.890625 Z M 17.25 -10.890625 C 17.25 -13.203125 16.742188 -14.96875 15.734375 -16.1875 C 14.734375 -17.40625 13.394531 -18.015625 11.71875 -18.015625 C 10.039062 -18.015625 8.695312 -17.40625 7.6875 -16.1875 C 6.6875 -14.96875 6.1875 -13.203125 6.1875 -10.890625 C 6.1875 -8.585938 6.6875 -6.828125 7.6875 -5.609375 C 8.695312 -4.390625 10.039062 -3.78125 11.71875 -3.78125 C 13.394531 -3.78125 14.734375 -4.390625 15.734375 -5.609375 C 16.742188 -6.828125 17.25 -8.585938 17.25 -10.890625 Z M 17.25 -10.890625 "/></g></g></g><g fill="#ff0000" fill-opacity="1"><g transform="translate(148.705927, 47.619595)"><g><path d="M 1.890625 0 L 1.890625 -21.796875 L 16.328125 -21.796875 L 16.328125 -18 L 6.5 -18 L 6.5 -12.796875 L 15.375 -12.796875 L 15.375 -9 L 6.5 -9 L 6.5 0 Z M 1.890625 0 "/></g></g></g><g fill="#ff0000" fill-opacity="1"><g transform="translate(167.645156, 47.619595)"><g><path d="M 6.5 -21.796875 L 6.5 0 L 1.890625 0 L 1.890625 -21.796875 Z M 6.5 -21.796875 "/></g></g></g><g fill="#ff0000" fill-opacity="1"><g transform="translate(177.462831, 47.619595)"><g><path d="M 1.890625 0 L 1.890625 -21.796875 L 6.5 -21.796875 L 6.5 -3.796875 L 15.84375 -3.796875 L 15.84375 0 Z M 1.890625 0 "/></g></g></g><g fill="#ff0000" fill-opacity="1"><g transform="translate(195.880521, 47.619595)"><g><path d="M 1.890625 0 L 1.890625 -21.796875 L 16.578125 -21.796875 L 16.578125 -18 L 6.5 -18 L 6.5 -12.796875 L 15.828125 -12.796875 L 15.828125 -9 L 6.5 -9 L 6.5 -3.796875 L 16.625 -3.796875 L 16.625 0 Z M 1.890625 0 "/></g></g></g><g clip-path="url(#ef967b214b)"><path fill="#ff0000" d="M 6.464844 48.09375 C 7.21875 51.628906 10.351562 54.179688 13.941406 54.179688 L 51.800781 54.179688 C 55.390625 54.179688 58.523438 51.628906 59.277344 48.09375 L 68.160156 6.125 C 68.378906 5.066406 69.3125 4.308594 70.382812 4.308594 L 79.882812 4.308594 C 80.8125 4.308594 81.566406 3.550781 81.566406 2.613281 C 81.566406 1.675781 80.8125 0.914062 79.882812 0.914062 L 70.382812 0.914062 C 67.726562 0.914062 65.40625 2.8125 64.847656 5.425781 L 59.335938 31.511719 L 21.257812 31.511719 L 27.445312 25.285156 C 28.101562 24.625 28.101562 23.546875 27.445312 22.886719 C 26.792969 22.230469 25.722656 22.230469 25.066406 22.886719 L 16.003906 32.007812 C 15.351562 32.667969 15.351562 33.746094 16.003906 34.402344 L 25.046875 43.503906 C 25.382812 43.84375 25.800781 44.003906 26.238281 44.003906 C 26.671875 44.003906 27.109375 43.84375 27.425781 43.503906 C 28.082031 42.847656 28.082031 41.769531 27.425781 41.109375 L 21.238281 34.882812 L 58.582031 34.882812 L 55.945312 47.394531 C 55.527344 49.371094 53.785156 50.789062 51.78125 50.789062 L 13.921875 50.789062 C 11.917969 50.789062 10.171875 49.351562 9.757812 47.394531 L 3.589844 18.238281 C 3.449219 17.558594 3.609375 16.863281 4.046875 16.324219 C 4.480469 15.785156 5.136719 15.464844 5.8125 15.464844 L 48.191406 15.464844 L 42.003906 21.691406 C 41.347656 22.351562 41.347656 23.425781 42.003906 24.085938 C 42.339844 24.425781 42.757812 24.585938 43.191406 24.585938 C 43.628906 24.585938 44.066406 24.425781 44.382812 24.085938 L 53.445312 14.964844 C 53.761719 14.644531 53.941406 14.207031 53.941406 13.769531 C 53.941406 13.328125 53.761719 12.890625 53.445312 12.570312 L 44.382812 3.449219 C 43.730469 2.792969 42.65625 2.792969 42.003906 3.449219 C 41.347656 4.109375 41.347656 5.1875 42.003906 5.84375 L 48.191406 12.070312 L 5.832031 12.070312 C 4.125 12.070312 2.519531 12.851562 1.429688 14.1875 C 0.335938 15.523438 -0.0585938 17.261719 0.296875 18.957031 Z M 6.464844 48.09375 " fill-opacity="1" fill-rule="nonzero"/></g><g clip-path="url(#c379b7f3ef)"><path fill="#272727" d="M 10.09375 66.074219 C 10.09375 70.507812 13.683594 74.117188 18.085938 74.117188 C 22.488281 74.117188 26.078125 70.507812 26.078125 66.074219 C 26.078125 61.644531 22.488281 58.035156 18.085938 58.035156 C 13.683594 58.035156 10.09375 61.644531 10.09375 66.074219 Z M 22.707031 66.074219 C 22.707031 68.628906 20.644531 70.726562 18.085938 70.726562 C 15.527344 70.726562 13.464844 68.652344 13.464844 66.074219 C 13.464844 63.5 15.527344 61.425781 18.085938 61.425781 C 20.644531 61.425781 22.707031 63.523438 22.707031 66.074219 Z M 22.707031 66.074219 " fill-opacity="1" fill-rule="nonzero"/></g><g clip-path="url(#c081545dba)"><path fill="#272727" d="M 39.625 66.074219 C 39.625 70.507812 43.214844 74.117188 47.617188 74.117188 C 52.019531 74.117188 55.609375 70.507812 55.609375 66.074219 C 55.609375 61.644531 52.019531 58.035156 47.617188 58.035156 C 43.214844 58.035156 39.625 61.644531 39.625 66.074219 Z M 52.238281 66.074219 C 52.238281 68.628906 50.175781 70.726562 47.617188 70.726562 C 45.058594 70.726562 42.996094 68.652344 42.996094 66.074219 C 42.996094 63.5 45.058594 61.425781 47.617188 61.425781 C 50.175781 61.425781 52.238281 63.523438 52.238281 66.074219 Z M 52.238281 66.074219 " fill-opacity="1" fill-rule="nonzero"/></g></svg>